<?xml version="1.0" standalone="no"?>
<!DOCTYPE svg PUBLIC "-//W3C//DTD SVG 20010904//EN"
 "http://www.w3.org/TR/2001/REC-SVG-20010904/DTD/svg10.dtd">
<svg version="1.0" xmlns="http://www.w3.org/2000/svg"
 width="512.000000pt" height="512.000000pt" viewBox="0 0 512.000000 512.000000"
 preserveAspectRatio="xMidYMid meet">
<metadata>
Created by potrace 1.11, written by Peter Selinger 2001-2013
</metadata>
<g transform="translate(0.000000,512.000000) scale(0.100000,-0.100000)"
fill="#000000" stroke="none">
<path d="M1595 5102 c-22 -11 -48 -29 -58 -40 -26 -29 -45 -90 -42 -131 2 -20
76 -223 165 -451 89 -228 173 -444 187 -480 13 -36 28 -74 33 -85 8 -19 184
-473 310 -800 31 -82 61 -159 65 -170 5 -11 9 -22 10 -25 1 -3 6 -16 12 -30 6
-14 40 -101 76 -195 36 -93 136 -350 221 -570 85 -219 154 -401 151 -403 -2
-2 -27 1 -57 7 -29 6 -66 13 -83 16 -16 4 -91 8 -165 9 -214 6 -418 -33 -610
-116 -70 -30 -183 -89 -201 -104 -8 -8 -19 -14 -23 -14 -16 0 -163 -118 -229
-184 -334 -336 -376 -762 -104 -1052 133 -143 357 -249 577 -272 84 -9 290 -9
357 1 162 22 323 72 473 146 84 41 131 69 244 147 33 22 150 135 202 195 80
91 159 245 189 367 19 81 24 193 12 287 -10 79 -10 76 -77 250 -33 83 -102
263 -155 400 -99 256 -134 345 -211 542 -24 62 -55 143 -69 180 -14 38 -29 77
-35 88 -5 11 -36 92 -70 180 -33 88 -65 169 -70 180 -17 38 -270 696 -270 703
0 4 131 -7 162 -14 13 -3 48 -9 78 -15 88 -17 304 -93 438 -153 202 -91 421
-226 563 -346 70 -58 196 -177 228 -214 14 -17 37 -41 50 -54 13 -13 52 -61
86 -107 l62 -84 14 62 c61 275 -80 602 -390 905 -148 144 -292 244 -491 340
-264 127 -443 212 -446 212 -1 0 -108 51 -236 113 -128 62 -283 137 -345 166
l-111 53 -77 202 c-103 268 -127 316 -169 344 -47 32 -120 38 -171 14z"/>
</g>
</svg>
